<?xml version="1.0" standalone="no"?>
<!DOCTYPE svg PUBLIC "-//W3C//DTD SVG 20010904//EN"
 "http://www.w3.org/TR/2001/REC-SVG-20010904/DTD/svg10.dtd">
<svg version="1.0" xmlns="http://www.w3.org/2000/svg"
 width="159.000000pt" height="155.000000pt" viewBox="0 0 159.000000 155.000000"
 preserveAspectRatio="xMidYMid meet">

<g transform="translate(0.000000,155.000000) scale(0.100000,-0.100000)"
fill="#000000" stroke="none">
<path d="M84 1496 c-43 -43 -46 -90 -8 -135 32 -38 80 -49 123 -27 67 35 78
122 20 170 -45 38 -92 35 -135 -8z"/>
<path d="M509 1501 c-27 -28 -34 -48 -30 -96 3 -29 66 -85 96 -85 72 0 126 70
105 136 -25 76 -116 100 -171 45z"/>
<path d="M940 1501 c-16 -16 -32 -40 -36 -55 -14 -58 45 -126 110 -126 40 0
96 58 96 99 0 97 -105 148 -170 82z"/>
<path d="M1364 1496 c-45 -45 -47 -92 -5 -138 25 -28 36 -33 75 -33 58 0 95
33 103 93 5 37 2 45 -30 77 -48 48 -95 49 -143 1z"/>
<path d="M79 1069 c-77 -83 14 -212 116 -163 69 32 83 102 34 159 -27 30 -37
35 -76 35 -37 0 -50 -5 -74 -31z"/>
<path d="M521 1084 c-13 -9 -29 -32 -37 -50 -12 -29 -12 -39 0 -69 15 -35 67
-75 97 -75 26 0 83 43 97 74 18 36 8 71 -28 107 -33 34 -91 39 -129 13z"/>
<path d="M935 1070 c-73 -76 3 -202 101 -170 114 38 91 200 -28 200 -36 0 -50
-6 -73 -30z"/>
<path d="M1374 1082 c-45 -36 -55 -82 -28 -133 35 -68 135 -71 175 -5 45 73
-1 156 -86 156 -23 0 -49 -8 -61 -18z"/>
<path d="M114 670 c-32 -13 -64 -59 -64 -92 0 -64 45 -108 111 -108 40 0 99
56 99 94 0 78 -77 134 -146 106z"/>
<path d="M526 659 c-16 -12 -35 -37 -42 -56 -27 -63 24 -133 96 -133 43 0 75
20 96 61 20 39 11 78 -25 113 -40 38 -88 44 -125 15z"/>
<path d="M958 665 c-65 -36 -73 -122 -17 -169 69 -58 169 -13 169 75 0 77 -87
131 -152 94z"/>
<path d="M1383 660 c-64 -39 -72 -103 -19 -156 47 -47 95 -47 142 0 51 51 39
127 -26 161 -38 20 -58 19 -97 -5z"/>
<path d="M84 216 c-26 -26 -34 -42 -34 -71 0 -45 53 -105 93 -105 104 0 152
115 77 183 -44 39 -92 37 -136 -7z"/>
<path d="M532 237 c-92 -52 -57 -197 49 -197 37 0 80 31 95 67 37 87 -61 176
-144 130z"/>
<path d="M940 221 c-16 -16 -32 -40 -36 -55 -14 -58 45 -126 110 -126 43 0 96
58 96 105 0 29 -8 45 -34 71 -45 45 -95 47 -136 5z"/>
<path d="M1364 216 c-47 -47 -47 -95 0 -142 47 -47 95 -47 142 0 26 26 34 42
34 71 0 52 -53 105 -105 105 -29 0 -45 -8 -71 -34z"/>
</g>
</svg>
